<?xml version="1.0" encoding="UTF-8" standalone="no"?>
<!-- Created with Inkscape (http://www.inkscape.org/) -->

<svg
   xmlns:dc="http://purl.org/dc/elements/1.1/"
   xmlns:cc="http://creativecommons.org/ns#"
   xmlns:rdf="http://www.w3.org/1999/02/22-rdf-syntax-ns#"
   xmlns:svg="http://www.w3.org/2000/svg"
   xmlns="http://www.w3.org/2000/svg"
   xmlns:xlink="http://www.w3.org/1999/xlink"
   xmlns:sodipodi="http://sodipodi.sourceforge.net/DTD/sodipodi-0.dtd"
   xmlns:inkscape="http://www.inkscape.org/namespaces/inkscape"
   width="250"
   height="250"
   viewBox="0 0 250.00001 250"
   id="svg3534"
   version="1.1"
   inkscape:version="0.91 r13725"
   sodipodi:docname="iridium-browser.svg">
  <defs
     id="defs3536">
    <clipPath
       id="clip10">
      <path
         inkscape:connector-curvature="0"
         d="m 126,31 89,0 0,36 -89,0 z m 0,0"
         id="path37" />
    </clipPath>
    <clipPath
       id="clip11">
      <path
         inkscape:connector-curvature="0"
         d="m 131.14453,66.875 c -0.61328,-1.832031 -1.15625,-3.625 -1.62891,-5.375 -1.04296,-3.832031 -1.77343,-7.445312 -2.28124,-10.742188 -0.17188,-1.117187 -0.31641,-2.203124 -0.44141,-3.242187 2.16797,-1.207031 4.36328,-2.351563 6.58203,-3.429687 2.73047,-1.324219 5.5,-2.554688 8.30859,-3.683594 0.0859,-0.03516 0.17578,-0.07031 0.26563,-0.105469 1.80078,-0.707031 3.60547,-1.386719 5.43359,-2.019531 0.96485,-0.339844 1.9375,-0.664063 2.91797,-0.976563 0.29688,-0.09375 0.59766,-0.1875 0.90234,-0.28125 0.0625,-0.01953 0.125,-0.03906 0.1875,-0.05859 0.14454,-0.04297 0.29297,-0.08594 0.4336,-0.128907 0.89844,-0.285156 1.79687,-0.550781 2.69922,-0.800781 4.16015,-1.195312 8.39453,-2.171875 12.6914,-2.941406 0.23438,-0.05078 0.48828,-0.08984 0.72657,-0.128906 0.65234,-0.121094 1.30859,-0.226563 1.96484,-0.324219 0.0977,-0.01563 0.19531,-0.02734 0.28906,-0.04297 6.12891,-0.960938 12.27735,-1.476562 18.41016,-1.550781 0.60547,-0.0078 1.21094,-0.01172 1.8164,-0.01172 0,0 0.004,0 0.004,0 2.29297,0 4.59375,0.0625 6.87891,0.1875 0.14843,0.0078 0.29687,0.01563 0.4414,0.02344 5.48438,0.320312 10.94141,0.980468 16.38282,2.003906 0.008,0.06641 0.0234,0.136718 0.0352,0.207031 0.0234,0.113281 0.0508,0.226563 0.0781,0.34375 -3.19922,0.894531 -43.00782,0.605469 -83.09766,33.078125"
         id="path40" />
    </clipPath>
    <clipPath
       id="clip8">
      <path
         inkscape:connector-curvature="0"
         d="m 126,31 89,0 0,36 -89,0 z m 0,0"
         id="path30" />
    </clipPath>
    <clipPath
       id="clip9">
      <path
         inkscape:connector-curvature="0"
         d="m 131.14453,66.875 c -0.61328,-1.832031 -1.15625,-3.625 -1.62891,-5.375 0.47266,1.75 1.01563,3.542969 1.62891,5.375 m -3.91015,-16.117188 c -0.17188,-1.117187 -0.31641,-2.199218 -0.44141,-3.242187 0.125,1.039063 0.26953,2.125 0.44141,3.242187 m 6.14062,-6.671874 c 2.73047,-1.324219 5.5,-2.554688 8.30859,-3.683594 -2.80859,1.128906 -5.57812,2.359375 -8.30859,3.683594 m 8.57422,-3.789063 c 1.80078,-0.707031 3.60547,-1.386719 5.43359,-2.019531 -1.82812,0.632812 -3.63281,1.3125 -5.43359,2.019531 m 9.2539,-3.277344 c 0.0625,-0.01953 0.125,-0.03906 0.1875,-0.05859 -0.0625,0.01953 -0.125,0.03906 -0.1875,0.05859 m 63.03907,-3.222656 c -0.0273,-0.117187 -0.0547,-0.230469 -0.0781,-0.34375 0.0234,0.113281 0.0508,0.226563 0.0781,0.34375 M 170.19531,32.59375 c 6.12891,-0.960938 12.27735,-1.476562 18.41016,-1.550781 -6.13281,0.07422 -12.28125,0.589843 -18.41016,1.550781 m 27.10938,-1.375 c -2.28516,-0.125 -4.58594,-0.1875 -6.87891,-0.1875 2.29297,0 4.59375,0.0625 6.87891,0.1875 m -6.88282,-0.1875 0,0"
         id="path33" />
    </clipPath>
    <clipPath
       id="clip6">
      <path
         inkscape:connector-curvature="0"
         d="m 135,78 62,0 0,47 -62,0 z m 0,0"
         id="path23" />
    </clipPath>
    <clipPath
       id="clip7">
      <path
         inkscape:connector-curvature="0"
         d="m 184.15234,124.11328 c -10.59765,-4.51562 -24.59375,-12.76562 -36.55468,-27.42578 -0.14063,-0.171875 -0.28125,-0.347656 -0.42188,-0.523438 -1.11719,-1.382812 -2.20703,-2.820312 -3.27734,-4.3125 -1.9961,-2.792968 -3.77344,-5.589843 -5.35157,-8.375 -0.97656,-1.726562 -1.88281,-3.445312 -2.71484,-5.15625 l 0.23438,0.01563 c 0.0937,0.02344 0.17578,0.03516 0.26953,0.05859 8.90234,10.035157 30.0039,30.882808 60.46093,32.046878 -0.15234,0.19531 -0.30078,0.39062 -0.45312,0.58593 -0.28125,0.35938 -0.5625,0.71485 -0.83984,1.07032 -0.14454,0.17578 -0.28516,0.35937 -0.42969,0.53906 -0.0391,0.0469 -0.0781,0.0977 -0.1211,0.14453 -0.0508,0.0664 -0.10156,0.12891 -0.15234,0.19141 -0.1875,0.23047 -0.38281,0.45703 -0.56641,0.6914 -3.15625,3.79688 -6.3125,7.01563 -9.26953,9.70703 -0.1914,0.17579 -0.38281,0.34766 -0.57422,0.51954 l -0.23828,0.22265"
         id="path26" />
    </clipPath>
    <clipPath
       id="clip4">
      <path
         inkscape:connector-curvature="0"
         d="m 138,83 59,0 0,42 -59,0 z m 0,0"
         id="path16" />
    </clipPath>
    <clipPath
       id="clip5">
      <path
         inkscape:connector-curvature="0"
         d="m 184.15234,124.11328 0.23828,-0.22265 c 0.19141,-0.17188 0.38282,-0.34375 0.57422,-0.51954 -0.1914,0.17579 -0.38281,0.34766 -0.57422,0.51954 l -0.23828,0.22265 m 10.08203,-10.44922 c 0.1836,-0.23437 0.37891,-0.46093 0.56641,-0.6914 -0.1875,0.23047 -0.38281,0.45703 -0.56641,0.6914 m 0.83985,-1.02734 c 0.14453,-0.17969 0.28515,-0.36328 0.42969,-0.53906 0.27734,-0.35547 0.55859,-0.71094 0.83984,-1.07032 -0.28125,0.35938 -0.5625,0.71485 -0.83984,1.07032 -0.14454,0.17578 -0.28516,0.35937 -0.42969,0.53906 M 147.59766,96.6875 c -0.14063,-0.171875 -0.28125,-0.347656 -0.42188,-0.523438 -1.11719,-1.382812 -2.20703,-2.820312 -3.27734,-4.3125 -1.9961,-2.792968 -3.77344,-5.589843 -5.35157,-8.375 1.57813,2.785157 3.35547,5.582032 5.35157,8.375 1.07031,1.492188 2.16015,2.929688 3.27734,4.3125 0.14063,0.175782 0.28125,0.351563 0.42188,0.523438"
         id="path19" />
    </clipPath>
  </defs>
  <sodipodi:namedview
     id="base"
     pagecolor="#ffffff"
     bordercolor="#666666"
     borderopacity="1.0"
     inkscape:pageopacity="0.0"
     inkscape:pageshadow="2"
     inkscape:zoom="2.832"
     inkscape:cx="125"
     inkscape:cy="125"
     inkscape:document-units="px"
     inkscape:current-layer="layer1"
     showgrid="false"
     fit-margin-top="5"
     fit-margin-left="5"
     fit-margin-right="5"
     fit-margin-bottom="5"
     inkscape:window-width="1266"
     inkscape:window-height="904"
     inkscape:window-x="1033"
     inkscape:window-y="283"
     inkscape:window-maximized="0"
     units="px" />
  <metadata
     id="metadata3539">
    <rdf:RDF>
      <cc:Work
         rdf:about="">
        <dc:format>image/svg+xml</dc:format>
        <dc:type
           rdf:resource="http://purl.org/dc/dcmitype/StillImage" />
        <dc:title></dc:title>
      </cc:Work>
    </rdf:RDF>
  </metadata>
  <g
     inkscape:label="Layer 1"
     inkscape:groupmode="layer"
     id="layer1"
     transform="translate(-216.56195,-324.53761)">
    <g
       id="g3648"
       transform="translate(2.0000001,-2.0000001)">
      <path
         id="path78"
         d="m 282.28647,459.2489 c -0.2586,-0.49312 -0.46305,-1.01629 -0.63142,-1.56954 -0.16237,-0.4871 -0.28264,-0.98622 -0.36682,-1.50939 -0.24054,-1.47331 -0.18644,-2.93461 0.1504,-4.30569 0.15041,-0.66149 0.36682,-1.26885 0.66751,-1.87622 1.41919,-3.13905 4.34778,-5.52643 8.03407,-6.12778 4.37786,-0.71562 8.58731,1.29892 10.79428,4.84088 0.39689,0.58933 0.72162,1.25683 0.97419,1.93035 0.24655,0.65547 0.43898,1.35906 0.55926,2.07467 0.40892,2.50163 -0.0782,4.90703 -1.21472,6.94561 -0.32474,0.58934 -0.70961,1.13055 -1.12454,1.63569 -0.54723,0.6675 -1.16663,1.26284 -1.84015,1.77399 l 2.85643,7.75143 2.79027,7.559 -15.89375,0.0482 0.25259,-6.02555 0.22849,-7.73941 c -2.69406,-0.91405 -4.95514,-2.80832 -6.23602,-5.38812 l 0,-0.018 m 73.26881,-33.77806 c -0.042,-0.74568 -0.10825,-1.49136 -0.16237,-2.219 -0.4089,-5.4242 -1.11249,-10.44549 -1.93032,-14.96767 -0.13225,-0.69155 -0.24656,-1.38912 -0.37887,-2.06865 -0.0663,-0.28264 -0.11429,-0.5773 -0.18039,-0.85993 -0.0661,-0.28865 -0.13224,-0.5773 -0.17439,-0.84792 -8.37693,-1.57553 -16.77783,-2.59182 -25.22082,-3.08493 -4.67853,-0.2706 -9.38712,-0.37284 -14.07165,-0.30669 -9.59158,0.11429 -19.2072,0.9321 -28.78675,2.45352 -1.01028,0.15034 -2.02055,0.3127 -3.0248,0.49912 -0.36685,0.0541 -0.75771,0.1202 -1.11854,0.19845 -6.61486,1.18467 -13.13354,2.68805 -19.53794,4.52818 -1.38912,0.38487 -2.77222,0.79379 -4.15534,1.23278 -0.77575,0.22852 -1.56952,0.47507 -2.34528,0.72163 -4.50413,1.43122 -8.894,3.04885 -13.26585,4.77473 -7.84164,3.15109 -15.48482,6.80731 -22.92355,10.95063 1.01027,8.48509 2.97668,18.7141 6.69907,29.80305 1.90629,5.67676 4.25156,11.53994 7.18616,17.54746 l 0.03,0.0722 c 3.35555,6.87345 7.43874,13.86718 12.41794,20.83085 1.6477,2.29716 3.32547,4.51015 5.04535,6.63893 18.55172,23.0739 40.41691,35.99097 56.92404,43.02679 l 0.36682,-0.34276 c 0.29467,-0.2646 0.58933,-0.52919 0.88399,-0.79981 4.55224,-4.14331 9.41116,-9.09846 14.27009,-14.94362 0.36083,-0.45701 0.74569,-0.90201 1.10649,-1.35905 0.28265,-0.34277 0.56528,-0.70358 0.84793,-1.05236 0.65546,-0.84191 1.33498,-1.68981 1.99046,-2.54974 5.40015,-7.13204 10.61989,-15.34651 15.19018,-24.74567 0.33076,-0.67351 0.63743,-1.34102 0.96818,-2.00852 2.3994,-5.17163 4.60035,-10.70407 6.52468,-16.58531 0.20446,-0.67351 0.42095,-1.32296 0.64346,-2.01453 l 0.11429,-0.37884 0,-0.0181 c 1.76795,-5.76096 3.09094,-11.40766 4.06513,-16.87997 0.048,-0.3067 0.11416,-0.63743 0.16237,-0.94412 0.13824,-0.73967 0.25858,-1.47331 0.3548,-2.225 0.90804,-5.53846 1.40116,-10.89652 1.6417,-16.02606 0.0361,-0.7577 0.0661,-1.52142 0.0661,-2.27912 0.16237,-4.82285 0.048,-9.41719 -0.22249,-13.77097"
         style="fill:#5199d9;fill-opacity:1;fill-rule:nonzero;stroke:none"
         inkscape:connector-curvature="0" />
      <path
         id="path80"
         d="m 313.74323,360.48274 c 5.50238,-2.15886 11.2513,-3.86069 17.22875,-5.06941 31.6913,-6.41643 63.00372,2.36331 86.32417,21.36005 l -0.48708,0.24054 -16.42294,7.90779 c -18.7562,-12.55624 -42.28711,-17.98646 -66.11874,-13.16361 -2.12277,0.42095 -4.21548,0.92006 -6.2721,1.50339 -4.2275,-4.98523 -9.03233,-9.2849 -14.25206,-12.77875"
         style="fill:#3f4245;fill-opacity:1;fill-rule:nonzero;stroke:none"
         inkscape:connector-curvature="0" />
      <path
         id="path82"
         d="m 429.14881,388.9207 c -0.49311,0.33677 -1.00425,0.67954 -1.5094,1.01628 -1.46128,0.95015 -2.91655,1.99048 -4.43195,2.95264 -1.53347,0.93211 -3.07893,1.91231 -4.6605,2.88049 -1.03432,0.63743 -2.05061,1.28088 -3.14507,1.90628 -2.18892,1.2869 -4.45601,2.54974 -6.74716,3.87874 -1.72589,0.97418 -3.48183,1.82209 -5.24981,2.79027 -1.78002,0.86595 -3.56602,1.88223 -5.41218,2.73014 -7.28839,3.63818 -15.06389,6.92156 -23.13402,10.00651 -4.33577,1.57554 -8.76173,3.10298 -13.23579,4.51015 -0.60136,-5.10549 -1.39513,-9.75997 -2.25506,-13.87922 l -0.49313,-2.33927 c 3.93285,-0.69756 7.84767,-1.49136 11.71437,-2.34528 7.93183,-1.88825 15.66523,-3.999 23.06788,-6.48859 1.86419,-0.58331 3.65021,-1.32298 5.47231,-1.92433 1.78602,-0.6675 3.60209,-1.28088 5.34603,-1.98447 1.31696,-0.55324 2.65798,-1.09446 3.93885,-1.61763 2.1348,-0.84791 4.20345,-1.70183 6.23001,-2.63393 1.63568,-0.74567 3.2473,-1.47933 4.84689,-2.18291 1.58157,-0.75169 3.09697,-1.53344 4.65448,-2.29115 l 0.24053,-0.11429 c 0.95616,0.94412 1.87021,1.91231 2.77224,2.86845 0.67954,0.73967 1.34703,1.47331 1.99048,2.26109"
         style="fill:#3f4245;fill-opacity:1;fill-rule:nonzero;stroke:none"
         inkscape:connector-curvature="0" />
      <path
         id="path84"
         d="m 452.46325,439.44033 c -1.52142,0.79379 -3.06088,1.65974 -4.55825,2.48359 -1.48534,0.79981 -2.92859,1.56351 -4.43798,2.24305 l -9.21873,4.37184 -18.46154,8.72562 -4.61235,2.15886 c -1.48534,0.70959 -3.13305,1.2929 -4.67853,1.92433 -3.14507,1.23878 -6.23002,2.60385 -9.44725,3.72838 l -9.62766,3.3796 c -3.18115,1.13055 -6.47055,1.94838 -9.76596,2.82035 l -9.87422,2.61588 c -3.14507,0.79378 -6.16987,1.7379 -9.34502,2.28514 -0.72763,3.05487 -1.56351,6.14582 -2.52568,9.27887 -1.17264,3.83061 -2.46554,7.5169 -3.85466,11.07692 0.2285,-0.58333 40.10421,6.04358 80.17232,-28.37182 1.09447,7.07191 -11.04684,24.1864 -15.49686,29.65871 -20.20544,24.84789 -50.56173,34.52366 -81.75388,30.77121 -4.85893,6.99375 -9.89827,13.05538 -14.76322,18.20895 0.2706,0.10223 0.53521,0.15042 0.7998,0.25258 l 3.94486,1.07041 c 2.76022,0.65547 5.5926,1.01627 8.37084,1.49736 2.77223,0.60736 5.59859,0.70358 8.43698,0.87196 2.84441,0.13825 5.6467,0.49311 8.50916,0.24054 l 8.58128,-0.39087 8.20848,-1.21474 2.05661,-0.30668 c 0.39691,-0.0842 0.55926,-0.0542 1.1486,-0.21048 l 1.01628,-0.24054 4.12528,-1.04034 c 1.36507,-0.3608 2.76021,-0.63142 4.11326,-1.08845 l 4.011,-1.38911 3.98699,-1.40116 3.8727,-1.72587 3.8667,-1.71988 c 1.25082,-0.6675 2.47758,-1.35305 3.72839,-2.03859 l 3.71636,-2.02657 c 1.22675,-0.68554 2.36333,-1.55148 3.56603,-2.30919 2.3573,-1.53344 4.72663,-3.07893 6.86742,-4.91304 2.23704,-1.73792 4.4921,-3.43974 6.50063,-5.45427 2.09872,-1.92433 4.2275,-3.84263 6.00151,-5.92933 l 2.81432,-3.04887 0.68553,-0.76973 0.75171,-0.86594 c 0.43297,-0.54121 0.87796,-1.10649 1.29891,-1.66575 1.66575,-2.24304 3.49387,-4.4019 4.96717,-6.79528 l 2.32724,-3.52393 c 0.73967,-1.19069 1.42521,-2.46555 2.11676,-3.68028 1.48534,-2.45352 2.664,-4.96116 3.85467,-7.45678 1.23276,-2.39939 2.32724,-5.28588 3.2413,-7.80555 l 1.43724,-3.93886 c 0.42092,-1.32899 0.77573,-2.7121 1.18466,-4.08319 l 1.11851,-4.06514 0.84189,-4.08318 c 0.61338,-2.65197 0.9742,-5.56853 1.34703,-8.33476 0.38486,-2.82033 0.43297,-5.47229 0.67351,-8.36481 0.0962,-2.74817 -0.03,-5.62265 -0.0663,-8.38285 l -0.006,-1.96041 -1.76798,0.93209"
         style="fill:#3f4245;fill-opacity:1;fill-rule:nonzero;stroke:none"
         inkscape:connector-curvature="0" />
      <path
         id="path86"
         d="m 420.31494,439.9575 c -3.18116,1.27487 -6.44048,2.35731 -9.63967,3.62616 -3.84264,1.53345 -7.81157,2.62791 -11.6903,3.95089 -3.89074,1.35905 -7.91981,2.37534 -11.8707,3.42169 l -5.93536,1.61763 -6.03155,1.30494 c -3.99299,0.92007 -8.0882,1.85818 -12.1353,2.41744 l -1.1967,0.19845 c 0.71561,-6.61489 0.95615,-12.92308 0.85994,-18.8464 15.61712,-4.39588 31.40866,-10.21096 46.38835,-17.8301 0.93811,7.72137 4.81081,15.03983 11.25129,20.1393"
         style="fill:#5199d9;fill-opacity:1;fill-rule:nonzero;stroke:none"
         inkscape:connector-curvature="0" />
      <path
         id="path88"
         d="m 455.12725,426.63152 c -4.82284,7.21624 -13.68078,10.11475 -21.54646,7.62516 -1.67177,-0.50514 -3.31347,-1.25683 -4.84089,-2.28514 -6.29015,-4.19744 -9.2909,-11.41969 -8.34077,-18.41342 0.36683,-2.77224 1.34703,-5.50237 3.00076,-7.97394 5.79703,-8.7557 17.63165,-11.13103 26.38734,-5.34001 8.74968,5.82711 11.13707,17.63166 5.34002,26.38735"
         style="fill:#5199d9;fill-opacity:1;fill-rule:nonzero;stroke:none"
         inkscape:connector-curvature="0" />
      <path
         id="path90"
         d="m 326.56407,395.60774 c -4.68455,-0.2706 -9.39313,-0.37284 -14.07768,-0.30669 -1.85817,-4.76872 -4.40189,-9.04434 -7.43271,-12.61037 -0.64947,-0.78776 -1.32298,-1.53344 -2.03858,-2.25506 -3.74644,-3.78251 -8.07618,-6.55475 -12.72463,-8.08819 -1.09446,-0.35481 -2.19493,-0.63744 -3.31947,-0.84792 -2.82034,-0.55324 -5.75494,-0.63141 -8.68353,-0.15634 -14.10773,2.30919 -24.00599,16.47705 -24.76972,33.59757 -4.50413,1.43122 -8.894,3.04284 -13.26582,4.77473 -1.03434,-25.58153 14.00549,-47.84962 35.90074,-51.43369 8.50914,-1.38912 16.95213,0.23453 24.47506,4.16137 1.13054,0.58932 2.23101,1.22675 3.30143,1.93034 4.01101,2.52568 7.72135,5.7369 10.98671,9.52542 0.76371,0.89001 1.50938,1.8221 2.225,2.77825 4.11324,5.43622 7.36656,11.84665 9.4232,18.93058"
         style="fill:#3f4245;fill-opacity:1;fill-rule:nonzero;stroke:none"
         inkscape:connector-curvature="0" />
      <path
         id="path92"
         d="m 290.29047,372.34743 c 4.3117,-2.97069 8.84591,-5.64069 13.63869,-7.97394 4.01101,2.52568 7.72135,5.7369 10.98671,9.52542 0.76371,0.89001 1.50938,1.8221 2.225,2.77825 -4.21548,1.70183 -8.26258,3.71636 -12.08719,6.01352 -0.64947,-0.78776 -1.32298,-1.53344 -2.03858,-2.25506 -3.74644,-3.78251 -8.07618,-6.55475 -12.72463,-8.08819"
         style="fill:#3f4245;fill-opacity:1;fill-rule:nonzero;stroke:none"
         inkscape:connector-curvature="0" />
    </g>
    <g
       transform="matrix(1.25,0,0,1.2499999,98.352054,377.89442)"
       style="clip-rule:nonzero"
       clip-path="url(#clip4)"
       id="g94">
      <g
         style="clip-rule:nonzero"
         clip-path="url(#clip5)"
         id="g96">
        <use
           height="100%"
           width="100%"
           y="0"
           x="0"
           xlink:href="#image5"
           transform="matrix(0.480806,0,0,0.480909,137.69,82.53)"
           id="use98" />
      </g>
    </g>
    <g
       transform="matrix(1.25,0,0,1.2499999,98.352054,377.89442)"
       style="clip-rule:nonzero"
       clip-path="url(#clip6)"
       id="g100">
      <g
         style="clip-rule:nonzero"
         clip-path="url(#clip7)"
         id="g102">
        <use
           height="100%"
           width="100%"
           y="0"
           x="0"
           xlink:href="#image8"
           transform="matrix(0.480923,0,0,0.480816,134.79,77.73)"
           id="use104" />
      </g>
    </g>
    <g
       transform="matrix(1.25,0,0,1.2499999,98.352054,377.89442)"
       style="clip-rule:nonzero"
       clip-path="url(#clip8)"
       id="g106">
      <g
         style="clip-rule:nonzero"
         clip-path="url(#clip9)"
         id="g108">
        <use
           height="100%"
           width="100%"
           y="0"
           x="0"
           xlink:href="#image11"
           transform="matrix(0.480649,0,0,0.481026,126.19,30.23)"
           id="use110" />
      </g>
    </g>
    <g
       transform="matrix(1.25,0,0,1.2499999,98.352054,377.89442)"
       style="clip-rule:nonzero"
       clip-path="url(#clip10)"
       id="g112">
      <g
         style="clip-rule:nonzero"
         clip-path="url(#clip11)"
         id="g114">
        <use
           height="100%"
           width="100%"
           y="0"
           x="0"
           xlink:href="#image14"
           transform="matrix(0.480649,0,0,0.481026,126.19,30.23)"
           id="use116" />
      </g>
    </g>
  </g>
</svg>
